<svg xmlns="http://www.w3.org/2000/svg" width="956.00" height="414.12" viewBox="0 0 956.00 414.12">
<rect x="0" y="0" width="956.00" height="414.12" fill="#ffffff"/>
<polygon points="104.20,244.83 338.04,203.60 130.70,91.02" fill="#4664cf" fill-opacity="0.1" stroke="none"/>
<polygon points="338.04,203.60 487.94,331.61 637.83,203.59" fill="#4664cf" fill-opacity="0.1" stroke="none"/>
<polygon points="637.83,203.59 871.68,244.84 845.17,91.01" fill="#4664cf" fill-opacity="0.1" stroke="none"/>
<polyline points="142.68,97.53 301.40,183.71" fill="none" stroke="#263a80" stroke-opacity="0.7" stroke-width="2.00" stroke-linecap="round" stroke-linejoin="round"/>
<polygon points="295.01,189.49 295.84,188.90 297.78,187.43 298.87,186.50 299.92,185.54 300.80,184.58 301.40,183.71 301.76,182.82 302.07,181.58 302.33,180.14 302.55,178.64 302.83,176.03 302.92,174.92 326.05,197.10 295.01,189.49" fill="#263a80" fill-opacity="0.7" stroke="none"/>
<polyline points="324.60,205.97 145.26,237.59" fill="none" stroke="#263a80" stroke-opacity="0.7" stroke-width="2.00" stroke-linecap="round" stroke-linejoin="round"/>
<polygon points="146.66,229.09 146.38,230.07 145.78,232.43 145.50,233.84 145.28,235.24 145.18,236.53 145.26,237.59 145.53,238.52 146.06,239.67 146.76,240.97 147.52,242.28 148.92,244.49 149.54,245.42 117.64,242.46 146.66,229.09" fill="#263a80" fill-opacity="0.7" stroke="none"/>
<polyline points="351.67,203.60 596.14,203.59" fill="none" stroke="#263a80" stroke-opacity="0.7" stroke-width="2.00" stroke-linecap="round" stroke-linejoin="round"/>
<polygon points="593.28,211.72 593.74,210.80 594.73,208.59 595.25,207.25 595.72,205.90 596.03,204.65 596.14,203.59 596.03,202.63 595.72,201.40 595.25,200.01 594.73,198.58 593.73,196.16 593.28,195.14 624.19,203.59 593.28,211.72" fill="#263a80" fill-opacity="0.7" stroke="none"/>
<polyline points="627.46,212.45 519.64,304.53" fill="none" stroke="#263a80" stroke-opacity="0.7" stroke-width="2.00" stroke-linecap="round" stroke-linejoin="round"/>
<polygon points="516.54,296.49 516.79,297.49 517.47,299.82 517.94,301.18 518.46,302.50 519.04,303.66 519.64,304.53 520.35,305.19 521.38,305.92 522.64,306.68 523.96,307.43 526.30,308.62 527.31,309.11 498.31,322.75 516.54,296.49" fill="#263a80" fill-opacity="0.7" stroke="none"/>
<polyline points="651.26,205.96 830.63,237.60" fill="none" stroke="#263a80" stroke-opacity="0.7" stroke-width="2.00" stroke-linecap="round" stroke-linejoin="round"/>
<polygon points="826.40,245.11 827.00,244.28 828.37,242.27 829.12,241.04 829.81,239.80 830.34,238.62 830.63,237.60 830.69,236.64 830.59,235.37 830.38,233.92 830.11,232.42 829.55,229.87 829.28,228.78 858.25,242.47 826.40,245.11" fill="#263a80" fill-opacity="0.7" stroke="none"/>
<polyline points="869.37,231.40 852.25,132.09" fill="none" stroke="#263a80" stroke-opacity="0.7" stroke-width="2.00" stroke-linecap="round" stroke-linejoin="round"/>
<polygon points="860.74,133.53 859.76,133.24 857.41,132.63 856.00,132.34 854.60,132.11 853.31,132.02 852.25,132.09 851.32,132.36 850.16,132.88 848.87,133.57 847.55,134.33 845.34,135.72 844.40,136.34 847.48,104.45 860.74,133.53" fill="#263a80" fill-opacity="0.7" stroke="none"/>
<circle cx="130.70" cy="91.02" r="13.64" fill="#a8b5e3" fill-opacity="1" stroke="#192654" stroke-opacity="0.95" stroke-width="2.00"/>
<circle cx="338.04" cy="203.60" r="13.64" fill="#a8b5e3" fill-opacity="1" stroke="#192654" stroke-opacity="0.95" stroke-width="2.00"/>
<circle cx="104.20" cy="244.83" r="13.64" fill="#a8b5e3" fill-opacity="1" stroke="#192654" stroke-opacity="0.95" stroke-width="2.00"/>
<circle cx="637.83" cy="203.59" r="13.64" fill="#a8b5e3" fill-opacity="1" stroke="#192654" stroke-opacity="0.95" stroke-width="2.00"/>
<circle cx="487.94" cy="331.61" r="13.64" fill="#a8b5e3" fill-opacity="1" stroke="#192654" stroke-opacity="0.95" stroke-width="2.00"/>
<circle cx="871.68" cy="244.84" r="13.64" fill="#a8b5e3" fill-opacity="1" stroke="#192654" stroke-opacity="0.95" stroke-width="2.00"/>
<circle cx="845.17" cy="91.01" r="13.64" fill="#a8b5e3" fill-opacity="1" stroke="#192654" stroke-opacity="0.95" stroke-width="2.00"/>
<text x="80.40" y="63.71" font-size="43.19" font-family="'Source Sans Pro', 'Source Sans 3', 'Helvetica Neue', Helvetica, Arial, sans-serif" fill="#000000" text-anchor="middle" dominant-baseline="central">1</text>
<text x="393.08" y="222.96" font-size="43.19" font-family="'Source Sans Pro', 'Source Sans 3', 'Helvetica Neue', Helvetica, Arial, sans-serif" fill="#000000" text-anchor="middle" dominant-baseline="central">2</text>
<text x="46.04" y="255.08" font-size="43.19" font-family="'Source Sans Pro', 'Source Sans 3', 'Helvetica Neue', Helvetica, Arial, sans-serif" fill="#000000" text-anchor="middle" dominant-baseline="central">3</text>
<text x="674.79" y="164.36" font-size="43.19" font-family="'Source Sans Pro', 'Source Sans 3', 'Helvetica Neue', Helvetica, Arial, sans-serif" fill="#000000" text-anchor="middle" dominant-baseline="central">4</text>
<text x="445.97" y="367.45" font-size="43.19" font-family="'Source Sans Pro', 'Source Sans 3', 'Helvetica Neue', Helvetica, Arial, sans-serif" fill="#000000" text-anchor="middle" dominant-baseline="central">5</text>
<text x="909.96" y="283.27" font-size="43.19" font-family="'Source Sans Pro', 'Source Sans 3', 'Helvetica Neue', Helvetica, Arial, sans-serif" fill="#000000" text-anchor="middle" dominant-baseline="central">6</text>
<text x="837.53" y="46.67" font-size="43.19" font-family="'Source Sans Pro', 'Source Sans 3', 'Helvetica Neue', Helvetica, Arial, sans-serif" fill="#000000" text-anchor="middle" dominant-baseline="central">7</text>
</svg>
