<svg xmlns="http://www.w3.org/2000/svg" width="956.00" height="501.78" viewBox="0 0 956.00 501.78">
<rect x="0" y="0" width="956.00" height="501.78" fill="#ffffff"/>
<polygon points="708.90,235.08 895.05,366.81 882.15,274.78" fill="#4664cf" fill-opacity="0.1" stroke="none"/>
<polygon points="606.91,347.05 752.21,291.96 708.90,235.08" fill="#4664cf" fill-opacity="0.1" stroke="none"/>
<polygon points="403.28,319.08 606.91,347.05 581.28,259.94" fill="#4664cf" fill-opacity="0.1" stroke="none"/>
<polygon points="409.98,224.34 581.28,259.94 708.90,235.08" fill="#4664cf" fill-opacity="0.1" stroke="none"/>
<polygon points="100.62,179.68 183.05,297.40 227.19,148.94" fill="#4664cf" fill-opacity="0.1" stroke="none"/>
<polygon points="227.19,148.94 251.01,218.74 409.98,224.34" fill="#4664cf" fill-opacity="0.1" stroke="none"/>
<polygon points="73.81,82.26 100.62,179.68 251.01,218.74" fill="#4664cf" fill-opacity="0.1" stroke="none"/>
<polygon points="239.10,360.89 409.98,224.34 251.01,218.74" fill="#4664cf" fill-opacity="0.1" stroke="none"/>
<polygon points="92.70,437.13 239.10,360.89 183.05,297.40" fill="#4664cf" fill-opacity="0.1" stroke="none"/>
<polygon points="183.05,297.40 403.28,319.08 251.01,218.74" fill="#4664cf" fill-opacity="0.1" stroke="none"/>
<polygon points="752.21,291.96 882.15,274.78 857.73,180.12" fill="#4664cf" fill-opacity="0.1" stroke="none"/>
<polygon points="708.90,235.08 857.73,180.12 845.18,74.01" fill="#4664cf" fill-opacity="0.1" stroke="none"/>
<polygon points="581.28,259.94 752.21,291.96 708.90,235.08" fill="#4664cf" fill-opacity="0.1" stroke="none"/>
<polyline points="717.50,237.06 850.47,267.52" fill="none" stroke="#263a80" stroke-opacity="0.7" stroke-width="2.00" stroke-linecap="round" stroke-linejoin="round"/>
<polygon points="846.59,273.67 847.13,273.00 848.37,271.36 849.05,270.36 849.69,269.34 850.18,268.37 850.47,267.52 850.56,266.71 850.54,265.64 850.42,264.40 850.26,263.14 849.89,260.96 849.71,260.03 873.55,272.81 846.59,273.67" fill="#263a80" fill-opacity="0.7" stroke="none"/>
<polyline points="883.37,283.52 890.54,334.62" fill="none" stroke="#263a80" stroke-opacity="0.7" stroke-width="2.00" stroke-linecap="round" stroke-linejoin="round"/>
<polygon points="883.41,333.19 884.23,333.46 886.20,334.03 887.38,334.31 888.56,334.54 889.65,334.66 890.54,334.62 891.33,334.42 892.32,334.01 893.43,333.46 894.56,332.86 896.47,331.74 897.27,331.24 893.83,358.06 883.41,333.19" fill="#263a80" fill-opacity="0.7" stroke="none"/>
<polyline points="702.96,241.61 628.80,323.02" fill="none" stroke="#263a80" stroke-opacity="0.7" stroke-width="2.00" stroke-linecap="round" stroke-linejoin="round"/>
<polygon points="625.35,316.62 625.67,317.42 626.48,319.31 627.02,320.39 627.60,321.45 628.20,322.36 628.80,323.02 629.46,323.50 630.40,324.00 631.54,324.51 632.72,324.99 634.80,325.74 635.70,326.05 612.86,340.52 625.35,316.62" fill="#263a80" fill-opacity="0.7" stroke="none"/>
<polyline points="615.17,343.92 721.82,303.48" fill="none" stroke="#263a80" stroke-opacity="0.7" stroke-width="2.00" stroke-linecap="round" stroke-linejoin="round"/>
<polygon points="722.00,310.75 722.08,309.89 722.20,307.84 722.21,306.63 722.18,305.43 722.05,304.34 721.82,303.48 721.45,302.75 720.83,301.88 720.05,300.92 719.21,299.95 717.70,298.34 717.03,297.66 743.95,295.09 722.00,310.75" fill="#263a80" fill-opacity="0.7" stroke="none"/>
<polyline points="604.42,338.58 590.45,291.11" fill="none" stroke="#263a80" stroke-opacity="0.7" stroke-width="2.00" stroke-linecap="round" stroke-linejoin="round"/>
<polygon points="597.71,291.49 596.86,291.34 594.83,291.06 593.62,290.96 592.43,290.90 591.33,290.95 590.45,291.11 589.70,291.43 588.78,291.98 587.76,292.69 586.73,293.45 585.01,294.83 584.29,295.44 583.77,268.41 597.71,291.49" fill="#263a80" fill-opacity="0.7" stroke="none"/>
<polyline points="572.90,262.72 434.11,308.84" fill="none" stroke="#263a80" stroke-opacity="0.7" stroke-width="2.00" stroke-linecap="round" stroke-linejoin="round"/>
<polygon points="434.24,301.57 434.12,302.42 433.91,304.46 433.85,305.67 433.84,306.87 433.92,307.96 434.11,308.84 434.46,309.57 435.04,310.48 435.78,311.47 436.58,312.47 438.02,314.14 438.65,314.85 411.65,316.30 434.24,301.57" fill="#263a80" fill-opacity="0.7" stroke="none"/>
<polyline points="589.94,258.25 677.00,241.30" fill="none" stroke="#263a80" stroke-opacity="0.7" stroke-width="2.00" stroke-linecap="round" stroke-linejoin="round"/>
<polygon points="675.94,248.49 676.17,247.66 676.64,245.66 676.85,244.47 677.02,243.28 677.08,242.19 677.00,241.30 676.76,240.52 676.30,239.55 675.69,238.47 675.03,237.38 673.81,235.53 673.27,234.75 700.24,236.77 675.94,248.49" fill="#263a80" fill-opacity="0.7" stroke="none"/>
<polyline points="700.08,234.77 442.46,225.50" fill="none" stroke="#263a80" stroke-opacity="0.7" stroke-width="2.00" stroke-linecap="round" stroke-linejoin="round"/>
<polygon points="445.12,218.74 444.71,219.50 443.80,221.34 443.32,222.45 442.89,223.57 442.58,224.62 442.46,225.50 442.52,226.32 442.75,227.36 443.10,228.55 443.50,229.77 444.27,231.84 444.62,232.72 418.81,224.65 445.12,218.74" fill="#263a80" fill-opacity="0.7" stroke="none"/>
<polyline points="109.20,177.60 195.62,156.61" fill="none" stroke="#263a80" stroke-opacity="0.7" stroke-width="2.00" stroke-linecap="round" stroke-linejoin="round"/>
<polygon points="194.89,163.84 195.08,163.00 195.45,160.98 195.61,159.78 195.73,158.59 195.74,157.49 195.62,156.61 195.33,155.84 194.83,154.90 194.17,153.85 193.46,152.78 192.16,151.00 191.59,150.24 218.62,151.02 194.89,163.84" fill="#263a80" fill-opacity="0.7" stroke="none"/>
<polyline points="224.68,157.40 192.31,266.25" fill="none" stroke="#263a80" stroke-opacity="0.7" stroke-width="2.00" stroke-linecap="round" stroke-linejoin="round"/>
<polygon points="186.42,261.98 187.05,262.57 188.61,263.91 189.57,264.65 190.54,265.35 191.48,265.91 192.31,266.25 193.11,266.39 194.18,266.44 195.42,266.40 196.70,266.32 198.90,266.09 199.84,265.97 185.56,288.94 186.42,261.98" fill="#263a80" fill-opacity="0.7" stroke="none"/>
<polyline points="230.04,157.29 240.51,187.98" fill="none" stroke="#263a80" stroke-opacity="0.7" stroke-width="2.00" stroke-linecap="round" stroke-linejoin="round"/>
<polygon points="233.24,187.91 234.10,188.03 236.14,188.22 237.35,188.27 238.55,188.28 239.64,188.18 240.51,187.98 241.25,187.64 242.15,187.05 243.13,186.30 244.13,185.49 245.79,184.04 246.49,183.40 248.16,210.39 233.24,187.91" fill="#263a80" fill-opacity="0.7" stroke="none"/>
<polyline points="259.83,219.05 377.51,223.19" fill="none" stroke="#263a80" stroke-opacity="0.7" stroke-width="2.00" stroke-linecap="round" stroke-linejoin="round"/>
<polygon points="374.86,229.96 375.26,229.20 376.17,227.36 376.65,226.25 377.08,225.13 377.38,224.08 377.51,223.19 377.44,222.38 377.22,221.33 376.86,220.14 376.47,218.93 375.70,216.86 375.35,215.98 401.16,224.03 374.86,229.96" fill="#263a80" fill-opacity="0.7" stroke="none"/>
<polyline points="242.46,216.52 132.07,187.85" fill="none" stroke="#263a80" stroke-opacity="0.7" stroke-width="2.00" stroke-linecap="round" stroke-linejoin="round"/>
<polygon points="136.13,181.82 135.57,182.47 134.28,184.07 133.57,185.06 132.91,186.05 132.38,187.02 132.07,187.85 131.96,188.66 131.95,189.73 132.04,190.97 132.16,192.24 132.46,194.43 132.61,195.37 109.16,181.90 136.13,181.82" fill="#263a80" fill-opacity="0.7" stroke="none"/>
<polyline points="98.28,171.17 82.43,113.59" fill="none" stroke="#263a80" stroke-opacity="0.7" stroke-width="2.00" stroke-linecap="round" stroke-linejoin="round"/>
<polygon points="89.69,114.10 88.84,113.94 86.81,113.62 85.61,113.50 84.41,113.42 83.32,113.44 82.43,113.59 81.68,113.89 80.75,114.43 79.72,115.12 78.68,115.86 76.93,117.21 76.19,117.81 76.16,90.77 89.69,114.10" fill="#263a80" fill-opacity="0.7" stroke="none"/>
<polyline points="250.27,227.54 241.81,328.51" fill="none" stroke="#263a80" stroke-opacity="0.7" stroke-width="2.00" stroke-linecap="round" stroke-linejoin="round"/>
<polygon points="235.18,325.53 235.92,325.97 237.71,326.97 238.80,327.50 239.90,327.99 240.93,328.34 241.81,328.51 242.62,328.48 243.68,328.31 244.89,328.01 246.12,327.68 248.23,327.01 249.12,326.70 239.83,352.10 235.18,325.53" fill="#263a80" fill-opacity="0.7" stroke="none"/>
<polyline points="245.99,355.38 384.60,244.62" fill="none" stroke="#263a80" stroke-opacity="0.7" stroke-width="2.00" stroke-linecap="round" stroke-linejoin="round"/>
<polygon points="386.99,251.49 386.81,250.65 386.30,248.66 385.94,247.50 385.54,246.37 385.08,245.38 384.60,244.62 384.02,244.05 383.17,243.40 382.12,242.73 381.03,242.06 379.10,240.99 378.26,240.56 403.09,229.85 386.99,251.49" fill="#263a80" fill-opacity="0.7" stroke="none"/>
<polyline points="233.26,354.27 204.55,321.76" fill="none" stroke="#263a80" stroke-opacity="0.7" stroke-width="2.00" stroke-linecap="round" stroke-linejoin="round"/>
<polygon points="211.29,319.03 210.46,319.26 208.50,319.86 207.36,320.28 206.25,320.74 205.28,321.24 204.55,321.76 204.01,322.37 203.40,323.25 202.78,324.33 202.17,325.45 201.20,327.43 200.80,328.29 188.89,304.02 211.29,319.03" fill="#263a80" fill-opacity="0.7" stroke="none"/>
<polyline points="178.25,304.81 110.34,409.84" fill="none" stroke="#263a80" stroke-opacity="0.7" stroke-width="2.00" stroke-linecap="round" stroke-linejoin="round"/>
<polygon points="105.89,404.09 106.33,404.83 107.45,406.55 108.16,407.54 108.90,408.48 109.64,409.28 110.34,409.84 111.07,410.20 112.09,410.54 113.29,410.85 114.53,411.14 116.71,411.54 117.64,411.69 97.49,429.72 105.89,404.09" fill="#263a80" fill-opacity="0.7" stroke="none"/>
<polyline points="188.82,290.72 229.76,243.33" fill="none" stroke="#263a80" stroke-opacity="0.7" stroke-width="2.00" stroke-linecap="round" stroke-linejoin="round"/>
<polygon points="233.37,249.64 233.04,248.85 232.17,246.99 231.60,245.91 231.00,244.88 230.37,243.98 229.76,243.33 229.09,242.87 228.13,242.39 226.98,241.92 225.79,241.47 223.69,240.77 222.78,240.49 245.24,225.42 233.37,249.64" fill="#263a80" fill-opacity="0.7" stroke="none"/>
<polyline points="258.38,223.60 376.14,301.20" fill="none" stroke="#263a80" stroke-opacity="0.7" stroke-width="2.00" stroke-linecap="round" stroke-linejoin="round"/>
<polygon points="370.35,305.60 371.10,305.16 372.83,304.07 373.82,303.36 374.77,302.63 375.58,301.89 376.14,301.20 376.51,300.48 376.86,299.46 377.18,298.26 377.47,297.02 377.89,294.85 378.05,293.91 395.91,314.23 370.35,305.60" fill="#263a80" fill-opacity="0.7" stroke="none"/>
<polyline points="758.26,285.54 835.43,203.76" fill="none" stroke="#263a80" stroke-opacity="0.7" stroke-width="2.00" stroke-linecap="round" stroke-linejoin="round"/>
<polygon points="838.76,210.22 838.46,209.41 837.68,207.51 837.16,206.42 836.60,205.36 836.01,204.43 835.43,203.76 834.78,203.27 833.84,202.75 832.71,202.23 831.54,201.72 829.47,200.93 828.58,200.61 851.67,186.54 838.76,210.22" fill="#263a80" fill-opacity="0.7" stroke="none"/>
<polyline points="859.94,188.67 874.03,243.31" fill="none" stroke="#263a80" stroke-opacity="0.7" stroke-width="2.00" stroke-linecap="round" stroke-linejoin="round"/>
<polygon points="866.79,242.69 867.63,242.86 869.65,243.21 870.86,243.35 872.05,243.45 873.15,243.44 874.03,243.31 874.79,243.02 875.73,242.50 876.77,241.83 877.83,241.10 879.60,239.78 880.34,239.19 879.94,266.23 866.79,242.69" fill="#263a80" fill-opacity="0.7" stroke="none"/>
<polyline points="849.45,183.18 739.38,223.83" fill="none" stroke="#263a80" stroke-opacity="0.7" stroke-width="2.00" stroke-linecap="round" stroke-linejoin="round"/>
<polygon points="739.27,216.56 739.18,217.42 739.04,219.46 739.02,220.68 739.04,221.87 739.16,222.96 739.38,223.83 739.75,224.55 740.36,225.44 741.13,226.40 741.96,227.38 743.46,229.00 744.12,229.68 717.18,232.03 739.27,216.56" fill="#263a80" fill-opacity="0.7" stroke="none"/>
<polyline points="714.60,228.35 824.19,98.82" fill="none" stroke="#263a80" stroke-opacity="0.7" stroke-width="2.00" stroke-linecap="round" stroke-linejoin="round"/>
<polygon points="827.87,105.09 827.53,104.30 826.64,102.45 826.06,101.38 825.45,100.35 824.81,99.46 824.19,98.82 823.52,98.37 822.55,97.90 821.40,97.44 820.20,97.00 818.10,96.32 817.19,96.05 839.48,80.75 827.87,105.09" fill="#263a80" fill-opacity="0.7" stroke="none"/>
<polyline points="714.25,242.11 732.52,266.10" fill="none" stroke="#263a80" stroke-opacity="0.7" stroke-width="2.00" stroke-linecap="round" stroke-linejoin="round"/>
<polygon points="725.60,268.34 726.45,268.17 728.44,267.71 729.61,267.37 730.75,267.00 731.75,266.57 732.52,266.10 733.11,265.54 733.77,264.70 734.47,263.67 735.16,262.60 736.28,260.69 736.73,259.86 746.86,284.93 725.60,268.34" fill="#263a80" fill-opacity="0.7" stroke="none"/>
<polyline points="743.53,290.33 613.22,265.92" fill="none" stroke="#263a80" stroke-opacity="0.7" stroke-width="2.00" stroke-linecap="round" stroke-linejoin="round"/>
<polygon points="616.85,259.62 616.34,260.31 615.16,262.00 614.52,263.03 613.93,264.07 613.47,265.06 613.22,265.92 613.16,266.73 613.23,267.80 613.40,269.03 613.61,270.29 614.06,272.46 614.28,273.38 589.95,261.56 616.85,259.62" fill="#263a80" fill-opacity="0.7" stroke="none"/>
<circle cx="708.90" cy="235.08" r="8.83" fill="#a8b5e3" fill-opacity="1" stroke="#192654" stroke-opacity="0.95" stroke-width="2.00"/>
<circle cx="882.15" cy="274.78" r="8.83" fill="#a8b5e3" fill-opacity="1" stroke="#192654" stroke-opacity="0.95" stroke-width="2.00"/>
<circle cx="895.05" cy="366.81" r="8.83" fill="#a8b5e3" fill-opacity="1" stroke="#192654" stroke-opacity="0.95" stroke-width="2.00"/>
<circle cx="606.91" cy="347.05" r="8.83" fill="#a8b5e3" fill-opacity="1" stroke="#192654" stroke-opacity="0.95" stroke-width="2.00"/>
<circle cx="752.21" cy="291.96" r="8.83" fill="#a8b5e3" fill-opacity="1" stroke="#192654" stroke-opacity="0.95" stroke-width="2.00"/>
<circle cx="581.28" cy="259.94" r="8.83" fill="#a8b5e3" fill-opacity="1" stroke="#192654" stroke-opacity="0.95" stroke-width="2.00"/>
<circle cx="403.28" cy="319.08" r="8.83" fill="#a8b5e3" fill-opacity="1" stroke="#192654" stroke-opacity="0.95" stroke-width="2.00"/>
<circle cx="409.98" cy="224.34" r="8.83" fill="#a8b5e3" fill-opacity="1" stroke="#192654" stroke-opacity="0.95" stroke-width="2.00"/>
<circle cx="100.62" cy="179.68" r="8.83" fill="#a8b5e3" fill-opacity="1" stroke="#192654" stroke-opacity="0.95" stroke-width="2.00"/>
<circle cx="227.19" cy="148.94" r="8.83" fill="#a8b5e3" fill-opacity="1" stroke="#192654" stroke-opacity="0.95" stroke-width="2.00"/>
<circle cx="183.05" cy="297.40" r="8.83" fill="#a8b5e3" fill-opacity="1" stroke="#192654" stroke-opacity="0.95" stroke-width="2.00"/>
<circle cx="251.01" cy="218.74" r="8.83" fill="#a8b5e3" fill-opacity="1" stroke="#192654" stroke-opacity="0.95" stroke-width="2.00"/>
<circle cx="73.81" cy="82.26" r="8.83" fill="#a8b5e3" fill-opacity="1" stroke="#192654" stroke-opacity="0.95" stroke-width="2.00"/>
<circle cx="239.10" cy="360.89" r="8.83" fill="#a8b5e3" fill-opacity="1" stroke="#192654" stroke-opacity="0.95" stroke-width="2.00"/>
<circle cx="92.70" cy="437.13" r="8.83" fill="#a8b5e3" fill-opacity="1" stroke="#192654" stroke-opacity="0.95" stroke-width="2.00"/>
<circle cx="857.73" cy="180.12" r="8.83" fill="#a8b5e3" fill-opacity="1" stroke="#192654" stroke-opacity="0.95" stroke-width="2.00"/>
<circle cx="845.18" cy="74.01" r="8.83" fill="#a8b5e3" fill-opacity="1" stroke="#192654" stroke-opacity="0.95" stroke-width="2.00"/>
<text x="691.10" y="207.05" font-size="27.95" font-family="'Source Sans Pro', 'Source Sans 3', 'Helvetica Neue', Helvetica, Arial, sans-serif" fill="#000000" text-anchor="middle" dominant-baseline="central">7</text>
<text x="919.72" y="281.74" font-size="27.95" font-family="'Source Sans Pro', 'Source Sans 3', 'Helvetica Neue', Helvetica, Arial, sans-serif" fill="#000000" text-anchor="middle" dominant-baseline="central">2</text>
<text x="899.26" y="396.83" font-size="27.95" font-family="'Source Sans Pro', 'Source Sans 3', 'Helvetica Neue', Helvetica, Arial, sans-serif" fill="#000000" text-anchor="middle" dominant-baseline="central">v9</text>
<text x="582.28" y="385.20" font-size="27.95" font-family="'Source Sans Pro', 'Source Sans 3', 'Helvetica Neue', Helvetica, Arial, sans-serif" fill="#000000" text-anchor="middle" dominant-baseline="central">v14</text>
<text x="781.37" y="313.43" font-size="27.95" font-family="'Source Sans Pro', 'Source Sans 3', 'Helvetica Neue', Helvetica, Arial, sans-serif" fill="#000000" text-anchor="middle" dominant-baseline="central">6</text>
<text x="544.64" y="224.16" font-size="27.95" font-family="'Source Sans Pro', 'Source Sans 3', 'Helvetica Neue', Helvetica, Arial, sans-serif" fill="#000000" text-anchor="middle" dominant-baseline="central">v11</text>
<text x="399.53" y="347.51" font-size="27.95" font-family="'Source Sans Pro', 'Source Sans 3', 'Helvetica Neue', Helvetica, Arial, sans-serif" fill="#000000" text-anchor="middle" dominant-baseline="central">4</text>
<text x="444.87" y="196.43" font-size="27.95" font-family="'Source Sans Pro', 'Source Sans 3', 'Helvetica Neue', Helvetica, Arial, sans-serif" fill="#000000" text-anchor="middle" dominant-baseline="central">v8</text>
<text x="68.48" y="197.90" font-size="27.95" font-family="'Source Sans Pro', 'Source Sans 3', 'Helvetica Neue', Helvetica, Arial, sans-serif" fill="#000000" text-anchor="middle" dominant-baseline="central">3</text>
<text x="243.44" y="111.70" font-size="27.95" font-family="'Source Sans Pro', 'Source Sans 3', 'Helvetica Neue', Helvetica, Arial, sans-serif" fill="#000000" text-anchor="middle" dominant-baseline="central">v15</text>
<text x="122.95" y="304.55" font-size="27.95" font-family="'Source Sans Pro', 'Source Sans 3', 'Helvetica Neue', Helvetica, Arial, sans-serif" fill="#000000" text-anchor="middle" dominant-baseline="central">v12</text>
<text x="255.87" y="190.06" font-size="27.95" font-family="'Source Sans Pro', 'Source Sans 3', 'Helvetica Neue', Helvetica, Arial, sans-serif" fill="#000000" text-anchor="middle" dominant-baseline="central">1</text>
<text x="64.23" y="47.44" font-size="27.95" font-family="'Source Sans Pro', 'Source Sans 3', 'Helvetica Neue', Helvetica, Arial, sans-serif" fill="#000000" text-anchor="middle" dominant-baseline="central">v10</text>
<text x="236.53" y="390.86" font-size="27.95" font-family="'Source Sans Pro', 'Source Sans 3', 'Helvetica Neue', Helvetica, Arial, sans-serif" fill="#000000" text-anchor="middle" dominant-baseline="central">v16</text>
<text x="74.62" y="465.08" font-size="27.95" font-family="'Source Sans Pro', 'Source Sans 3', 'Helvetica Neue', Helvetica, Arial, sans-serif" fill="#000000" text-anchor="middle" dominant-baseline="central">5</text>
<text x="883.39" y="142.01" font-size="27.95" font-family="'Source Sans Pro', 'Source Sans 3', 'Helvetica Neue', Helvetica, Arial, sans-serif" fill="#000000" text-anchor="middle" dominant-baseline="central">v17</text>
<text x="876.76" y="36.70" font-size="27.95" font-family="'Source Sans Pro', 'Source Sans 3', 'Helvetica Neue', Helvetica, Arial, sans-serif" fill="#000000" text-anchor="middle" dominant-baseline="central">v13</text>
</svg>
