<svg xmlns="http://www.w3.org/2000/svg" width="956.00" height="687.17" viewBox="0 0 956.00 687.17">
<rect x="0" y="0" width="956.00" height="687.17" fill="#ffffff"/>
<polygon points="593.02,347.51 874.15,433.77 874.15,261.25" fill="#4664cf" fill-opacity="0.1" stroke="none"/>
<polygon points="105.60,347.51 331.46,444.90 331.46,250.12" fill="#4664cf" fill-opacity="0.1" stroke="none"/>
<polygon points="331.46,250.12 593.02,347.51 491.23,97.47" fill="#4664cf" fill-opacity="0.1" stroke="none"/>
<polygon points="331.46,444.90 491.23,597.56 593.02,347.51" fill="#4664cf" fill-opacity="0.1" stroke="none"/>
<polyline points="607.05,343.21 832.20,274.12" fill="none" stroke="#263a80" stroke-opacity="0.7" stroke-width="2.00" stroke-linecap="round" stroke-linejoin="round"/>
<polygon points="831.84,283.09 832.01,282.04 832.33,279.52 832.43,278.03 832.49,276.55 832.42,275.20 832.20,274.12 831.80,273.20 831.11,272.07 830.22,270.83 829.27,269.57 827.54,267.46 826.77,266.58 860.12,265.56 831.84,283.09" fill="#263a80" fill-opacity="0.7" stroke="none"/>
<polyline points="874.15,275.92 874.15,389.89" fill="none" stroke="#263a80" stroke-opacity="0.7" stroke-width="2.00" stroke-linecap="round" stroke-linejoin="round"/>
<polygon points="865.69,386.91 866.65,387.39 868.95,388.42 870.35,388.97 871.75,389.45 873.06,389.78 874.15,389.89 875.15,389.78 876.43,389.45 877.89,388.97 879.37,388.42 881.89,387.38 882.96,386.91 874.15,419.10 865.69,386.91" fill="#263a80" fill-opacity="0.7" stroke="none"/>
<polyline points="331.46,430.23 331.46,294.00" fill="none" stroke="#263a80" stroke-opacity="0.7" stroke-width="2.00" stroke-linecap="round" stroke-linejoin="round"/>
<polygon points="339.92,296.98 338.96,296.51 336.66,295.47 335.26,294.93 333.86,294.44 332.55,294.12 331.46,294.00 330.46,294.12 329.18,294.44 327.72,294.93 326.24,295.47 323.72,296.51 322.65,296.98 331.46,264.80 339.92,296.98" fill="#263a80" fill-opacity="0.7" stroke="none"/>
<polyline points="317.98,255.93 145.90,330.14" fill="none" stroke="#263a80" stroke-opacity="0.7" stroke-width="2.00" stroke-linecap="round" stroke-linejoin="round"/>
<polygon points="145.28,321.19 145.23,322.25 145.19,324.78 145.24,326.28 145.35,327.75 145.57,329.08 145.90,330.14 146.40,331.01 147.21,332.06 148.23,333.20 149.31,334.34 151.26,336.25 152.12,337.04 119.08,341.70 145.28,321.19" fill="#263a80" fill-opacity="0.7" stroke="none"/>
<polyline points="345.21,255.24 551.90,332.20" fill="none" stroke="#263a80" stroke-opacity="0.7" stroke-width="2.00" stroke-linecap="round" stroke-linejoin="round"/>
<polygon points="546.16,339.09 546.93,338.36 548.71,336.56 549.70,335.44 550.65,334.30 551.41,333.19 551.90,332.20 552.14,331.22 552.28,329.91 552.33,328.38 552.34,326.80 552.25,324.07 552.18,322.91 579.27,342.39 546.16,339.09" fill="#263a80" fill-opacity="0.7" stroke="none"/>
<polyline points="587.49,333.92 507.78,138.11" fill="none" stroke="#263a80" stroke-opacity="0.7" stroke-width="2.00" stroke-linecap="round" stroke-linejoin="round"/>
<polygon points="516.74,137.68 515.68,137.60 513.15,137.51 511.65,137.53 510.18,137.61 508.84,137.80 507.78,138.11 506.90,138.59 505.83,139.38 504.67,140.37 503.50,141.43 501.56,143.35 500.75,144.19 496.77,111.06 516.74,137.68" fill="#263a80" fill-opacity="0.7" stroke="none"/>
<polyline points="579.27,352.63 372.58,429.59" fill="none" stroke="#263a80" stroke-opacity="0.7" stroke-width="2.00" stroke-linecap="round" stroke-linejoin="round"/>
<polygon points="372.42,420.62 372.31,421.68 372.14,424.20 372.12,425.70 372.15,427.18 372.30,428.52 372.58,429.59 373.03,430.48 373.79,431.57 374.75,432.76 375.77,433.96 377.63,435.96 378.44,436.80 345.21,439.78 372.42,420.62" fill="#263a80" fill-opacity="0.7" stroke="none"/>
<polyline points="342.07,455.04 459.51,567.24" fill="none" stroke="#263a80" stroke-opacity="0.7" stroke-width="2.00" stroke-linecap="round" stroke-linejoin="round"/>
<polygon points="451.51,571.30 452.51,570.94 454.85,569.99 456.21,569.35 457.52,568.68 458.67,567.96 459.51,567.24 460.11,566.44 460.76,565.29 461.42,563.90 462.05,562.46 463.04,559.92 463.44,558.82 480.62,587.42 451.51,571.30" fill="#263a80" fill-opacity="0.7" stroke="none"/>
<circle cx="593.02" cy="347.51" r="14.67" fill="#a8b5e3" fill-opacity="1" stroke="#192654" stroke-opacity="0.95" stroke-width="2.00"/>
<circle cx="874.15" cy="261.25" r="14.67" fill="#a8b5e3" fill-opacity="1" stroke="#192654" stroke-opacity="0.95" stroke-width="2.00"/>
<circle cx="874.15" cy="433.77" r="14.67" fill="#a8b5e3" fill-opacity="1" stroke="#192654" stroke-opacity="0.95" stroke-width="2.00"/>
<circle cx="331.46" cy="444.90" r="14.67" fill="#a8b5e3" fill-opacity="1" stroke="#192654" stroke-opacity="0.95" stroke-width="2.00"/>
<circle cx="331.46" cy="250.12" r="14.67" fill="#a8b5e3" fill-opacity="1" stroke="#192654" stroke-opacity="0.95" stroke-width="2.00"/>
<circle cx="105.60" cy="347.51" r="14.67" fill="#a8b5e3" fill-opacity="1" stroke="#192654" stroke-opacity="0.95" stroke-width="2.00"/>
<circle cx="491.23" cy="97.47" r="14.67" fill="#a8b5e3" fill-opacity="1" stroke="#192654" stroke-opacity="0.95" stroke-width="2.00"/>
<circle cx="491.23" cy="597.56" r="14.67" fill="#a8b5e3" fill-opacity="1" stroke="#192654" stroke-opacity="0.95" stroke-width="2.00"/>
<text x="635.82" y="387.80" font-size="46.47" font-family="'Source Sans Pro', 'Source Sans 3', 'Helvetica Neue', Helvetica, Arial, sans-serif" fill="#000000" text-anchor="middle" dominant-baseline="central">4</text>
<text x="907.61" y="215.98" font-size="46.47" font-family="'Source Sans Pro', 'Source Sans 3', 'Helvetica Neue', Helvetica, Arial, sans-serif" fill="#000000" text-anchor="middle" dominant-baseline="central">6</text>
<text x="874.15" y="479.02" font-size="46.47" font-family="'Source Sans Pro', 'Source Sans 3', 'Helvetica Neue', Helvetica, Arial, sans-serif" fill="#000000" text-anchor="middle" dominant-baseline="central">7</text>
<text x="273.33" y="467.94" font-size="46.47" font-family="'Source Sans Pro', 'Source Sans 3', 'Helvetica Neue', Helvetica, Arial, sans-serif" fill="#000000" text-anchor="middle" dominant-baseline="central">5</text>
<text x="330.96" y="204.48" font-size="46.47" font-family="'Source Sans Pro', 'Source Sans 3', 'Helvetica Neue', Helvetica, Arial, sans-serif" fill="#000000" text-anchor="middle" dominant-baseline="central">v8</text>
<text x="48.39" y="372.18" font-size="46.47" font-family="'Source Sans Pro', 'Source Sans 3', 'Helvetica Neue', Helvetica, Arial, sans-serif" fill="#000000" text-anchor="middle" dominant-baseline="central">1</text>
<text x="471.53" y="49.07" font-size="46.47" font-family="'Source Sans Pro', 'Source Sans 3', 'Helvetica Neue', Helvetica, Arial, sans-serif" fill="#000000" text-anchor="middle" dominant-baseline="central">2</text>
<text x="533.66" y="638.09" font-size="46.47" font-family="'Source Sans Pro', 'Source Sans 3', 'Helvetica Neue', Helvetica, Arial, sans-serif" fill="#000000" text-anchor="middle" dominant-baseline="central">3</text>
</svg>
