<svg xmlns="http://www.w3.org/2000/svg" width="920.92" height="1115.33" viewBox="0 0 920.92 1115.33">
<rect x="0" y="0" width="920.92" height="1115.33" fill="#ffffff"/>
<polyline points="405.77,54.63 406.18,57.87 407.78,69.17 409.57,80.41 411.55,91.58 413.71,102.69 416.05,113.74 418.58,124.73 421.30,135.66 424.20,146.52 427.29,157.33 430.56,168.07 434.02,178.75 437.66,189.37 441.49,199.92 445.50,210.42 449.70,220.85 454.08,231.22 458.65,241.53 463.40,251.78 468.34,261.96 471.38,267.97" fill="none" stroke="#8f0000" stroke-opacity="1" stroke-width="1.70" stroke-linecap="round" stroke-linejoin="round"/>
<polygon points="462.07,269.42 463.19,269.38 465.84,269.20 467.40,269.00 468.93,268.76 470.31,268.41 471.38,267.97 472.25,267.37 473.27,266.43 474.37,265.26 475.48,264.02 477.29,261.81 478.05,260.84 485.89,294.99 462.07,269.42" fill="#8f0000" fill-opacity="1" stroke="none"/>
<polyline points="400.22,53.32 255.92,269.77" fill="none" stroke="#8f0000" stroke-opacity="1" stroke-width="1.70" stroke-linecap="round" stroke-linejoin="round"/>
<polygon points="250.26,262.24 250.82,263.20 252.23,265.46 253.14,266.74 254.07,267.98 255.03,269.03 255.92,269.77 256.86,270.25 258.17,270.71 259.72,271.13 261.33,271.52 264.14,272.08 265.35,272.29 238.91,295.29 250.26,262.24" fill="#8f0000" fill-opacity="1" stroke="none"/>
<polyline points="408.81,53.62 410.44,56.45 415.93,66.45 421.24,76.52 426.36,86.64 431.30,96.83 436.06,107.07 440.62,117.38 445.01,127.76 449.21,138.19 453.22,148.68 457.05,159.24 460.69,169.86 464.14,180.54 467.42,191.28 470.50,202.08 473.40,212.95 476.12,223.87 478.65,234.86 481.00,245.91 483.16,257.03 484.33,263.66" fill="none" stroke="#8f0000" stroke-opacity="1" stroke-width="1.70" stroke-linecap="round" stroke-linejoin="round"/>
<polygon points="475.07,261.90 476.14,262.23 478.70,262.95 480.23,263.29 481.76,263.57 483.17,263.71 484.33,263.65 485.35,263.38 486.63,262.84 488.06,262.10 489.51,261.31 491.97,259.83 493.00,259.17 488.93,293.98 475.07,261.90" fill="#8f0000" fill-opacity="1" stroke="none"/>
<polyline points="232.41,310.03 231.76,312.66 229.35,323.24 227.13,333.83 225.11,344.42 223.28,355.02 221.65,365.62 220.21,376.24 218.97,386.86 217.93,397.48 217.07,408.11 216.42,418.75 215.96,429.40 215.69,440.05 215.62,450.71 215.74,461.38 216.06,472.05 216.57,482.73 217.28,493.41 218.19,504.10 219.29,514.80 219.83,519.26" fill="none" stroke="#8f0000" stroke-opacity="1" stroke-width="1.70" stroke-linecap="round" stroke-linejoin="round"/>
<polygon points="210.58,517.44 211.65,517.78 214.20,518.52 215.73,518.87 217.26,519.16 218.67,519.31 219.83,519.26 220.84,518.99 222.13,518.46 223.57,517.73 225.02,516.95 227.49,515.49 228.53,514.84 224.22,549.61 210.58,517.44" fill="#8f0000" fill-opacity="1" stroke="none"/>
<polyline points="235.78,310.15 236.25,312.82 237.94,323.54 239.43,334.25 240.72,344.95 241.82,355.65 242.72,366.34 243.43,377.03 243.95,387.71 244.27,398.38 244.39,409.05 244.32,419.71 244.05,430.36 243.59,441.00 242.93,451.64 242.08,462.28 241.04,472.90 239.79,483.52 238.36,494.13 236.72,504.74 234.90,515.34 234.05,519.75" fill="none" stroke="#8f0000" stroke-opacity="1" stroke-width="1.70" stroke-linecap="round" stroke-linejoin="round"/>
<polygon points="226.03,514.82 226.90,515.51 229.04,517.09 230.35,517.95 231.68,518.76 232.95,519.39 234.05,519.75 235.10,519.85 236.49,519.80 238.09,519.62 239.73,519.39 242.55,518.88 243.75,518.64 227.59,549.73 226.03,514.82" fill="#8f0000" fill-opacity="1" stroke="none"/>
<polyline points="232.40,310.03 117.02,775.54" fill="none" stroke="#8f0000" stroke-opacity="1" stroke-width="1.70" stroke-linecap="round" stroke-linejoin="round"/>
<polygon points="109.15,770.36 110.00,771.08 112.09,772.73 113.38,773.63 114.68,774.48 115.93,775.14 117.02,775.54 118.07,775.67 119.46,775.66 121.06,775.54 122.71,775.36 125.54,774.93 126.75,774.73 109.65,805.30 109.15,770.36" fill="#8f0000" fill-opacity="1" stroke="none"/>
<polyline points="491.95,310.02 492.87,313.69 495.98,325.20 499.26,336.63 502.71,347.98 506.34,359.25 510.15,370.44 514.14,381.54 518.31,392.56 522.65,403.50 527.16,414.35 531.86,425.12 536.73,435.81 541.78,446.42 547.01,456.95 552.41,467.39 557.99,477.75 563.75,488.03 569.68,498.22 575.79,508.34 582.08,518.37 586.87,525.74" fill="none" stroke="#8f0000" stroke-opacity="1" stroke-width="1.70" stroke-linecap="round" stroke-linejoin="round"/>
<polygon points="577.77,528.19 578.88,528.03 581.49,527.56 583.03,527.20 584.52,526.79 585.85,526.29 586.87,525.74 587.67,525.05 588.58,524.00 589.55,522.72 590.51,521.37 592.08,518.97 592.73,517.93 604.22,551.03 577.77,528.19" fill="#8f0000" fill-opacity="1" stroke="none"/>
<polyline points="494.73,308.72 496.94,311.79 503.76,321.58 510.40,331.44 516.87,341.39 523.16,351.42 529.27,361.53 535.20,371.73 540.96,382.01 546.54,392.37 551.94,402.81 557.17,413.34 562.22,423.94 567.09,434.63 571.78,445.41 576.30,456.26 580.64,467.20 584.81,478.22 588.79,489.32 592.60,500.51 596.24,511.77 598.80,520.19" fill="none" stroke="#8f0000" stroke-opacity="1" stroke-width="1.70" stroke-linecap="round" stroke-linejoin="round"/>
<polygon points="589.40,519.55 590.50,519.76 593.12,520.16 594.69,520.32 596.24,520.41 597.66,520.38 598.80,520.18 599.77,519.79 600.98,519.10 602.31,518.20 603.66,517.24 605.92,515.48 606.87,514.70 607.00,549.74 589.40,519.55" fill="#8f0000" fill-opacity="1" stroke="none"/>
<polyline points="491.95,310.02 609.33,775.57" fill="none" stroke="#8f0000" stroke-opacity="1" stroke-width="1.70" stroke-linecap="round" stroke-linejoin="round"/>
<polygon points="599.95,774.71 601.04,774.95 603.66,775.41 605.22,775.61 606.77,775.74 608.19,775.74 609.33,775.57 610.32,775.20 611.54,774.54 612.89,773.67 614.26,772.74 616.57,771.03 617.53,770.28 616.83,805.31 599.95,774.71" fill="#8f0000" fill-opacity="1" stroke="none"/>
<polyline points="228.13,565.45 229.39,569.38 233.32,581.00 237.42,592.53 241.70,603.97 246.14,615.31 250.76,626.56 255.55,637.72 260.51,648.78 265.64,659.76 270.94,670.64 276.42,681.42 282.07,692.12 287.89,702.72 293.88,713.23 300.04,723.65 306.38,733.97 312.89,744.21 319.57,754.35 326.42,764.39 333.44,774.35 339.43,782.56" fill="none" stroke="#8f0000" stroke-opacity="1" stroke-width="1.70" stroke-linecap="round" stroke-linejoin="round"/>
<polygon points="330.48,785.50 331.58,785.28 334.16,784.67 335.67,784.22 337.14,783.73 338.44,783.17 339.43,782.56 340.19,781.83 341.05,780.73 341.95,779.40 342.83,778.00 344.27,775.52 344.85,774.44 358.13,806.87 330.48,785.50" fill="#8f0000" fill-opacity="1" stroke="none"/>
<polyline points="222.21,565.09 123.96,777.97" fill="none" stroke="#8f0000" stroke-opacity="1" stroke-width="1.70" stroke-linecap="round" stroke-linejoin="round"/>
<polygon points="117.20,771.41 117.90,772.28 119.64,774.28 120.74,775.41 121.86,776.49 122.96,777.38 123.96,777.97 124.96,778.30 126.32,778.55 127.92,778.73 129.57,778.87 132.44,778.98 133.66,779.01 111.10,805.82 117.20,771.41" fill="#8f0000" fill-opacity="1" stroke="none"/>
<polyline points="230.76,564.04 233.35,567.25 240.89,576.93 248.25,586.70 255.45,596.56 262.47,606.52 269.32,616.56 276.00,626.70 282.51,636.93 288.85,647.26 295.01,657.68 301.00,668.19 306.82,678.79 312.47,689.49 317.95,700.27 323.25,711.15 328.38,722.13 333.34,733.19 338.13,744.35 342.75,755.60 347.19,766.94 350.75,776.47" fill="none" stroke="#8f0000" stroke-opacity="1" stroke-width="1.70" stroke-linecap="round" stroke-linejoin="round"/>
<polygon points="341.33,776.41 342.44,776.55 345.09,776.79 346.66,776.85 348.21,776.85 349.62,776.73 350.75,776.46 351.70,776.01 352.86,775.24 354.14,774.27 355.42,773.22 357.57,771.32 358.47,770.49 360.76,805.45 341.33,776.41" fill="#8f0000" fill-opacity="1" stroke="none"/>
<polyline points="614.01,564.13 618.50,569.93 628.14,582.06 637.91,594.04 647.82,605.89 657.86,617.59 668.04,629.15 678.35,640.58 688.80,651.86 699.39,663.00 710.11,674.00 720.96,684.86 731.95,695.58 743.08,706.16 754.34,716.60 765.74,726.89 777.27,737.05 788.94,747.07 800.74,756.94 812.68,766.68 824.75,776.27 836.96,785.73 843.05,790.31" fill="none" stroke="#8f0000" stroke-opacity="1" stroke-width="1.70" stroke-linecap="round" stroke-linejoin="round"/>
<polygon points="835.26,795.62 836.25,795.11 838.57,793.80 839.90,792.96 841.18,792.08 842.27,791.17 843.05,790.31 843.57,789.40 844.09,788.11 844.58,786.58 845.05,784.99 845.74,782.21 846.00,781.01 867.76,808.48 835.26,795.62" fill="#8f0000" fill-opacity="1" stroke="none"/>
<polyline points="609.31,565.84 617.34,774.42" fill="none" stroke="#8f0000" stroke-opacity="1" stroke-width="1.70" stroke-linecap="round" stroke-linejoin="round"/>
<polygon points="608.34,771.64 609.36,772.10 611.82,773.09 613.31,773.61 614.79,774.06 616.18,774.35 617.34,774.42 618.38,774.26 619.71,773.87 621.22,773.30 622.75,772.67 625.35,771.48 626.46,770.94 618.52,805.07 608.34,771.64" fill="#8f0000" fill-opacity="1" stroke="none"/>
<polyline points="615.65,562.43 621.62,566.70 634.10,575.87 646.44,585.18 658.65,594.64 670.72,604.23 682.66,613.97 694.47,623.84 706.13,633.86 717.67,644.02 729.06,654.31 740.33,664.75 751.45,675.33 762.44,686.05 773.30,696.91 784.02,707.91 794.60,719.05 805.05,730.33 815.37,741.75 825.54,753.32 835.59,765.02 845.50,776.87 850.31,782.77" fill="none" stroke="#8f0000" stroke-opacity="1" stroke-width="1.70" stroke-linecap="round" stroke-linejoin="round"/>
<polygon points="841.41,785.85 842.50,785.62 845.08,784.96 846.58,784.50 848.04,783.98 849.33,783.39 850.31,782.77 851.06,782.03 851.90,780.92 852.77,779.57 853.64,778.16 855.03,775.65 855.60,774.57 869.40,806.78 841.41,785.85" fill="#8f0000" fill-opacity="1" stroke="none"/>
<polyline points="104.22,820.65 102.95,823.37 98.40,833.54 94.05,843.76 89.89,854.02 85.92,864.33 82.13,874.68 78.54,885.08 75.14,895.53 71.93,906.02 68.90,916.55 66.07,927.13 63.43,937.76 60.97,948.43 58.71,959.15 56.63,969.91 54.75,980.72 53.06,991.57 51.55,1002.47 50.24,1013.42 49.11,1024.40 48.64,1030.04" fill="none" stroke="#8f0000" stroke-opacity="1" stroke-width="1.70" stroke-linecap="round" stroke-linejoin="round"/>
<polygon points="39.96,1026.37 40.93,1026.93 43.28,1028.16 44.71,1028.82 46.14,1029.42 47.49,1029.84 48.64,1030.03 49.69,1029.98 51.05,1029.71 52.61,1029.30 54.20,1028.82 56.91,1027.89 58.06,1027.47 46.78,1060.64 39.96,1026.37" fill="#8f0000" fill-opacity="1" stroke="none"/>
<polyline points="107.41,821.42 107.31,824.41 106.76,835.54 106.01,846.62 105.08,857.66 103.95,868.65 102.64,879.59 101.14,890.49 99.44,901.34 97.56,912.15 95.48,922.91 93.22,933.63 90.77,944.30 88.12,954.93 85.29,965.51 82.27,976.04 79.05,986.53 75.65,996.98 72.06,1007.38 68.28,1017.73 64.30,1028.04 62.18,1033.28" fill="none" stroke="#8f0000" stroke-opacity="1" stroke-width="1.70" stroke-linecap="round" stroke-linejoin="round"/>
<polygon points="55.27,1026.87 56.00,1027.72 57.78,1029.69 58.90,1030.79 60.05,1031.84 61.17,1032.70 62.18,1033.27 63.19,1033.58 64.56,1033.80 66.16,1033.94 67.82,1034.04 70.68,1034.09 71.91,1034.08 49.98,1061.41 55.27,1026.87" fill="#8f0000" fill-opacity="1" stroke="none"/>
<circle cx="404.76" cy="46.51" r="8.18" fill="#f7a300" fill-opacity="1" stroke="#f7a300" stroke-opacity="1" stroke-width="0.85"/>
<circle cx="234.37" cy="302.09" r="8.18" fill="#f7a300" fill-opacity="1" stroke="#f7a300" stroke-opacity="1" stroke-width="0.85"/>
<circle cx="489.95" cy="302.09" r="8.18" fill="#f7a300" fill-opacity="1" stroke="#f7a300" stroke-opacity="1" stroke-width="0.85"/>
<circle cx="225.64" cy="557.67" r="8.18" fill="#f7a300" fill-opacity="1" stroke="#f7a300" stroke-opacity="1" stroke-width="0.85"/>
<circle cx="609.00" cy="557.67" r="8.18" fill="#f7a300" fill-opacity="1" stroke="#f7a300" stroke-opacity="1" stroke-width="0.85"/>
<circle cx="107.68" cy="813.24" r="8.18" fill="#f7a300" fill-opacity="1" stroke="#f7a300" stroke-opacity="1" stroke-width="0.85"/>
<circle cx="363.25" cy="813.24" r="8.18" fill="#f7a300" fill-opacity="1" stroke="#f7a300" stroke-opacity="1" stroke-width="0.85"/>
<circle cx="618.83" cy="813.24" r="8.18" fill="#f7a300" fill-opacity="1" stroke="#f7a300" stroke-opacity="1" stroke-width="0.85"/>
<circle cx="874.41" cy="813.24" r="8.18" fill="#f7a300" fill-opacity="1" stroke="#f7a300" stroke-opacity="1" stroke-width="0.85"/>
<circle cx="46.51" cy="1068.82" r="8.18" fill="#f7a300" fill-opacity="1" stroke="#f7a300" stroke-opacity="1" stroke-width="0.85"/>
</svg>
